<mxfile host="app.diagrams.net" modified="2023-10-12T05:09:20.948Z" agent="Mozilla/5.0 (Macintosh; Intel Mac OS X 10_15_7) AppleWebKit/537.36 (KHTML, like Gecko) Chrome/117.0.0.0 Safari/537.36" version="22.0.4" etag="WwkFrhbih51Wjkvk1T_B" type="github">
  <diagram name="Halaman-1" id="RvcAXBuDPvf-XHA0VvlI">
    <mxGraphModel>
      <root>
        <mxCell id="0" />
        <mxCell id="1" parent="0" />
      </root>
    </mxGraphModel>
  </diagram>
</mxfile>
